<?xml version="1.0" encoding="UTF-8"?>
<svg xmlns="http://www.w3.org/2000/svg" version="1.1" viewBox="0 0 283.46 283.46">
  <g id="Black-white" display="none">
    <g id="Visual" display="none">
      <path d="M181.07,241.48s-36.02-3.48-66.31-3.48h-59.76v-10.85c2.58-.19,6.39-.46,11.41-.83,5.02-.37,8.49-.93,10.41-1.67,3.54-1.39,5.96-3.22,7.25-5.5s1.94-5.17,1.94-8.7v-113.1c0-3.15-.62-5.94-1.87-8.35s-3.68-4.36-7.32-5.84c-2.3-.93-5.69-1.88-10.19-2.85-4.5-.97-8.37-1.65-11.62-2.02v-10.85s28.28-1.28,34.06,0c7.17,1.59,12.13,4.37,14.72,17.38.32-.2-3.81,8.27-5.62,13.22,5.39-8.42,9.79-17.34,34-24.78,11.19-3.44,36.84-5.81,36.84-5.81v7.38c-2.9.28-17.96,3.81-21.61,5.79-3.46,1.88-6.54,4.11-7.8,6.66s-1.88,5.45-1.88,8.7c0,0,.11,46.86,0,50.56-.25,8.14,2.43,6.91,2.43,6.91l.67,5.57s-3.5.4-3.1,20.75c.06,3.05,0,29.17,0,29.17,0,3.34.6,6.22,1.96,8.56,8.81,15.17,16.73,6.81,43.07,18.52l-1.67,5.48Z" fill="#1d1d1b" stroke-width="0"/>
      <path d="M131.54,27.19s-9.07-12.82-23.01-4.98c-18.53,10.43-7.28,38.36-2.66,57.74,18.18-13.11,44.19-11.64,55.69-32.49,10.67-19.34-13.18-34.13-30.02-20.27Z" fill="#1d1d1b" stroke-width="0"/>
      <path d="M142.07,156.4c13.75-9.28,10.53-22.41,23.22-33.43,14.09-12.24,25.84-14.66,61.28-11.95-19.65,8.55-17.03,16.56-32.51,30.4-18.69,16.72-35.45,17.15-51.2,15.17,11.4-4.76,32.48-43.41,80.65-44.94-53.39-.01-68.81,40.63-80.9,44.89-.37-.08-.56-.14-.56-.14Z" fill="#1d1d1b" stroke-width="0"/>
      <path d="M171.1,71.37c8.15-5.43,5.58-15.95,15.68-23.6,11.79-8.93,32.89-6.69,50.92-6.5-12.68,3.63-19.61,7.84-30.91,19.7-14.12,14.83-27.84,13.04-35.37,10.67,11.22-1.98,17.92-30.58,64.08-30.2-50-1.93-53.46,28.77-64.23,30.01-.12.01-.17-.08-.17-.08Z" fill="#1d1d1b" stroke-width="0"/>
    </g>
    <g id="Visual-2" data-name="Visual" display="none">
      <path d="M181.07,241.48s-36.02-3.48-66.31-3.48h-59.76v-10.85c2.58-.19,6.39-.46,11.41-.83,5.02-.37,8.49-.93,10.41-1.67,3.54-1.39,5.96-3.22,7.25-5.5s1.94-5.17,1.94-8.7v-113.1c0-3.15-.62-5.94-1.87-8.35s-3.68-4.36-7.32-5.84c-2.3-.93-5.69-1.88-10.19-2.85-4.5-.97-8.37-1.65-11.62-2.02v-10.85s28.28-1.28,34.06,0c7.17,1.59,12.13,4.37,14.72,17.38.32-.2-3.81,8.27-5.62,13.22,5.39-8.42,9.79-17.34,34-24.78,11.19-3.44,36.84-5.81,36.84-5.81v7.38c-2.9.28-17.96,3.81-21.61,5.79-3.46,1.88-6.54,4.11-7.8,6.66s-1.88,5.45-1.88,8.7c0,0,.11,46.86,0,50.56-.25,8.14,2.43,6.91,2.43,6.91l.67,5.57s-3.5.4-3.1,20.75c.06,3.05,0,29.17,0,29.17,0,3.34.6,6.22,1.96,8.56,8.81,15.17,16.73,6.81,43.07,18.52l-1.67,5.48Z" fill="#fff" stroke-width="0"/>
      <path d="M131.54,27.19s-9.07-12.82-23.01-4.98c-18.53,10.43-7.28,38.36-2.66,57.74,18.18-13.11,44.19-11.64,55.69-32.49,10.67-19.34-13.18-34.13-30.02-20.27Z" fill="#fff" stroke-width="0"/>
      <path d="M142.07,156.4c13.75-9.28,10.53-22.41,23.22-33.43,14.09-12.24,25.84-14.66,61.28-11.95-19.65,8.55-17.03,16.56-32.51,30.4-18.69,16.72-35.45,17.15-51.2,15.17,11.4-4.76,32.48-43.41,80.65-44.94-53.39-.01-68.81,40.63-80.9,44.89-.37-.08-.56-.14-.56-.14Z" fill="#fff" stroke-width="0"/>
      <path d="M171.1,71.37c8.15-5.43,5.58-15.95,15.68-23.6,11.79-8.93,32.89-6.69,50.92-6.5-12.68,3.63-19.61,7.84-30.91,19.7-14.12,14.83-27.84,13.04-35.37,10.67,11.22-1.98,17.92-30.58,64.08-30.2-50-1.93-53.46,28.77-64.23,30.01-.12.01-.17-.08-.17-.08Z" fill="#fff" stroke-width="0"/>
    </g>
  </g>
  <g id="Color_2" data-name="Color #2">
    <g id="Visual-3" data-name="Visual">
      <path d="M181.07,241.48s-36.02-3.48-66.31-3.48h-59.76v-10.85c2.58-.19,6.39-.46,11.41-.83,5.02-.37,8.49-.93,10.41-1.67,3.54-1.39,5.96-3.22,7.25-5.5s1.94-5.17,1.94-8.7v-113.1c0-3.15-.62-5.94-1.87-8.35s-3.68-4.36-7.32-5.84c-2.3-.93-5.69-1.88-10.19-2.85-4.5-.97-8.37-1.65-11.62-2.02v-10.85s28.28-1.28,34.06,0c7.17,1.59,12.13,4.37,14.72,17.38.32-.2-3.81,8.27-5.62,13.22,5.39-8.42,9.79-17.34,34-24.78,11.19-3.44,36.84-5.81,36.84-5.81v7.38c-2.9.28-17.96,3.81-21.61,5.79-3.46,1.88-6.54,4.11-7.8,6.66s-1.88,5.45-1.88,8.7c0,0,.11,46.86,0,50.56-.25,8.14,2.43,6.91,2.43,6.91l.67,5.57s-3.5.4-3.1,20.75c.06,3.05,0,29.17,0,29.17,0,3.34.6,6.22,1.96,8.56,8.81,15.17,16.73,6.81,43.07,18.52l-1.67,5.48Z" fill="#878787" stroke-width="0"/>
      <path d="M131.54,27.19s-9.07-12.82-23.01-4.98c-18.53,10.43-7.28,38.36-2.66,57.74,18.18-13.11,44.19-11.64,55.69-32.49,10.67-19.34-13.18-34.13-30.02-20.27Z" fill="#f29cb6" stroke-width="0"/>
      <path d="M142.07,156.4c13.75-9.28,10.53-22.41,23.22-33.43,14.09-12.24,25.84-14.66,61.28-11.95-19.65,8.55-17.03,16.56-32.51,30.4-18.69,16.72-35.45,17.15-51.2,15.17,11.4-4.76,32.48-43.41,80.65-44.94-53.39-.01-68.81,40.63-80.9,44.89-.37-.08-.56-.14-.56-.14Z" fill="#9dd3c7" stroke-width="0"/>
      <path d="M171.1,71.37c8.15-5.43,5.58-15.95,15.68-23.6,11.79-8.93,32.89-6.69,50.92-6.5-12.68,3.63-19.61,7.84-30.91,19.7-14.12,14.83-27.84,13.04-35.37,10.67,11.22-1.98,17.92-30.58,64.08-30.2-50-1.93-53.46,28.77-64.23,30.01-.12.01-.17-.08-.17-.08Z" fill="#9dd3c7" stroke-width="0"/>
    </g>
  </g>
</svg>